<svg width="698" height="150" viewBox="0 0 698 150" fill="none" xmlns="http://www.w3.org/2000/svg">
<path d="M39.1 109.9C33.7 109.9 29.1333 108.367 25.4 105.3C21.6667 102.233 18.8333 97.9333 16.9 92.4C14.9667 86.8 14 80.2 14 72.6C14 65.2667 15.1333 58.8667 17.4 53.4C19.6667 47.8667 22.7667 43.6 26.7 40.6C30.7 37.5333 35.2667 36 40.4 36C43 36 45.3667 36.2667 47.5 36.8C49.6333 37.2667 51.5 37.9 53.1 38.7C53.9667 39.1667 54.4 39.8667 54.4 40.8L54.7 56C54.7 57.1333 54.3 57.7 53.5 57.7C52.7667 57.7 52.3 57.2667 52.1 56.4L51.3 53.4C49.8333 47.8667 48.1667 44.0667 46.3 42C44.4333 39.9333 41.8667 38.9 38.6 38.9C33.7333 38.9 29.7 41.8 26.5 47.6C23.3667 53.3333 21.8 61.6667 21.8 72.6C21.8 83.8667 23.4 92.4667 26.6 98.4C29.8667 104.267 34.0333 107.2 39.1 107.2C41.8333 107.2 43.9 106.6 45.3 105.4C46.7 104.2 47.4 101.967 47.4 98.7V76.8C47.4 75.4 47.1667 74.4333 46.7 73.9C46.3 73.3667 45.4 73.0333 44 72.9L40.1 72.5C39.2333 72.4333 38.8 72.0333 38.8 71.3C38.8 70.5667 39.3 70.2 40.3 70.2H58.6C59.6 70.2 60.1 70.6 60.1 71.4C60.1 72 59.7333 72.3667 59 72.5L57.5 72.7C56.0333 72.9 55.1667 73.3 54.9 73.9C54.6333 74.5 54.5 75.5 54.5 76.9V104C54.5 104.733 54.3 105.333 53.9 105.8C53.5 106.2 52.8 106.667 51.8 107.2C50.2 108 48.3667 108.633 46.3 109.1C44.2333 109.633 41.8333 109.9 39.1 109.9ZM88.2813 109.9C84.6813 109.9 81.4813 109.067 78.6813 107.4C75.9479 105.667 73.8146 103.3 72.2813 100.3C70.7479 97.2333 69.9813 93.7333 69.9813 89.8V43.6C69.9813 42.2 69.7479 41.2667 69.2813 40.8C68.8813 40.3333 67.9813 39.9667 66.5813 39.7L64.2813 39.3C63.4146 39.1 62.9813 38.7 62.9813 38.1C62.9813 37.3667 63.4813 37 64.4813 37H82.7813C83.7813 37 84.2813 37.4 84.2813 38.2C84.2813 38.8 83.9146 39.1667 83.1813 39.3L80.4813 39.7C79.1479 39.9 78.2479 40.2667 77.7813 40.8C77.3146 41.3333 77.0813 42.3 77.0813 43.7V89.9C77.0813 94.9667 78.2146 98.9 80.4813 101.7C82.7479 104.5 85.9146 105.9 89.9813 105.9C94.1146 105.9 97.3146 104.5 99.5813 101.7C101.848 98.9 102.981 94.9667 102.981 89.9V45.7C102.981 42.1 101.848 40.1 99.5813 39.7L96.8813 39.3C96.1479 39.1667 95.7813 38.8 95.7813 38.2C95.7813 37.4 96.2813 37 97.2813 37H111.681C112.681 37 113.181 37.3667 113.181 38.1C113.181 38.7 112.748 39.1 111.881 39.3L109.581 39.7C107.315 40.1 106.181 42.0667 106.181 45.6V89.8C106.181 95.8667 104.548 100.733 101.281 104.4C98.0146 108.067 93.6813 109.9 88.2813 109.9ZM159.395 109.9C153.595 109.9 149.895 106.1 148.295 98.5L145.995 87.4C145.261 83.8 144.428 81.0667 143.495 79.2C142.628 77.3333 141.395 76.0667 139.795 75.4C138.261 74.7333 136.128 74.4 133.395 74.4C132.461 74.4 131.728 74.6667 131.195 75.2C130.661 75.6667 130.395 76.2667 130.395 77V102C130.395 103.4 130.661 104.367 131.195 104.9C131.728 105.367 132.928 105.767 134.795 106.1L138.495 106.7C139.228 106.833 139.595 107.2 139.595 107.8C139.595 108.6 139.095 109 138.095 109H117.795C116.795 109 116.295 108.633 116.295 107.9C116.295 107.3 116.728 106.9 117.595 106.7L119.895 106.3C121.295 106.033 122.195 105.667 122.595 105.2C123.061 104.733 123.295 103.8 123.295 102.4V43.6C123.295 42.2 123.061 41.2667 122.595 40.8C122.195 40.3333 121.295 39.9667 119.895 39.7L117.595 39.3C116.728 39.1 116.295 38.7 116.295 38.1C116.295 37.3667 116.795 37 117.795 37H138.095C142.028 37 145.528 37.7667 148.595 39.3C151.661 40.8333 154.061 42.9667 155.795 45.7C157.528 48.3667 158.395 51.4667 158.395 55C158.395 59.2 157.128 63 154.595 66.4C152.061 69.7333 148.861 72.1 144.995 73.5C144.528 73.6333 144.261 73.8667 144.195 74.2C144.195 74.4667 144.428 74.7 144.895 74.9C147.028 75.9 148.695 77.3 149.895 79.1C151.161 80.9 152.128 83.3 152.795 86.3L154.995 96.5C155.728 99.9667 156.595 102.433 157.595 103.9C158.595 105.367 159.861 106.1 161.395 106.1C161.928 106.1 162.395 106.033 162.795 105.9C163.261 105.7 163.828 105.367 164.495 104.9C165.028 104.567 165.528 104.5 165.995 104.7C166.461 104.833 166.695 105.167 166.695 105.7C166.695 106.833 165.961 107.833 164.495 108.7C163.028 109.5 161.328 109.9 159.395 109.9ZM137.095 71.9C141.628 71.9 145.061 70.4 147.395 67.4C149.728 64.3333 150.895 60.2667 150.895 55.2C150.895 50.2667 149.528 46.4333 146.795 43.7C144.128 40.9 140.428 39.5 135.695 39.5C132.161 39.5 130.395 40.8333 130.395 43.5V66.4C130.395 70.0667 132.628 71.9 137.095 71.9ZM167.892 109C166.892 109 166.392 108.633 166.392 107.9C166.392 107.3 166.826 106.9 167.692 106.7L169.992 106.3C171.392 106.033 172.292 105.667 172.692 105.2C173.159 104.733 173.392 103.8 173.392 102.4V43.6C173.392 42.2 173.159 41.2667 172.692 40.8C172.292 40.3333 171.392 39.9667 169.992 39.7L167.692 39.3C166.826 39.1 166.392 38.7 166.392 38.1C166.392 37.3667 166.892 37 167.892 37H201.492C203.026 37 203.859 37.7667 203.992 39.3L204.792 55.9C204.926 57.0333 204.492 57.6 203.492 57.6C202.692 57.6 202.226 57.1667 202.092 56.3L201.492 52.6C200.759 48.0667 199.259 44.7667 196.992 42.7C194.726 40.5667 191.592 39.5 187.592 39.5C184.926 39.5 183.059 39.9 181.992 40.7C180.992 41.4333 180.492 42.7667 180.492 44.7V68.8C180.492 69.7333 180.959 70.2 181.892 70.2H186.892C189.826 70.2 191.626 68.6333 192.292 65.5L193.292 60.5C193.559 59.5 194.126 59.0667 194.992 59.2C195.726 59.3333 196.092 59.9 196.092 60.9V83.4C196.092 84.4 195.726 84.9667 194.992 85.1C194.126 85.2333 193.559 84.8 193.292 83.8L192.292 78.9C191.826 76.5667 191.159 75.0333 190.292 74.3C189.492 73.5667 188.326 73.2 186.792 73.2H181.892C180.959 73.2 180.492 73.6667 180.492 74.6V99.7C180.492 102.1 181.092 103.833 182.292 104.9C183.559 105.967 185.826 106.5 189.092 106.5C192.426 106.5 195.259 105.667 197.592 104C199.992 102.267 201.659 99.0667 202.592 94.4L203.792 88.5C203.992 87.6333 204.492 87.2 205.292 87.2C206.226 87.2 206.626 87.7667 206.492 88.9L205.492 106.7C205.359 108.233 204.526 109 202.992 109H167.892ZM213.205 109C212.205 109 211.705 108.633 211.705 107.9C211.705 107.3 212.138 106.9 213.005 106.7L215.305 106.3C216.705 106.033 217.605 105.667 218.005 105.2C218.471 104.733 218.705 103.8 218.705 102.4V43.6C218.705 42.2 218.471 41.2667 218.005 40.8C217.605 40.3333 216.705 39.9667 215.305 39.7L213.005 39.3C212.138 39.1 211.705 38.7 211.705 38.1C211.705 37.3667 212.205 37 213.205 37H231.505C232.505 37 233.005 37.4 233.005 38.2C233.005 38.8 232.638 39.1667 231.905 39.3L229.205 39.7C227.805 39.9 226.871 40.2667 226.405 40.8C226.005 41.3333 225.805 42.3 225.805 43.7V70.7C225.805 71.3667 226.005 71.7667 226.405 71.9C226.805 72.0333 227.171 71.8 227.505 71.2L243.905 45.5C246.105 42.1 245.905 40.1667 243.305 39.7L241.005 39.3C240.138 39.1 239.705 38.6667 239.705 38C239.705 37.3333 240.171 37 241.105 37H258.105C259.038 37 259.505 37.3667 259.505 38.1C259.505 38.8333 259.071 39.2333 258.205 39.3L256.305 39.5C254.238 39.7 252.538 40.3 251.205 41.3C249.871 42.3 248.371 44.1 246.705 46.7L235.405 64.4C234.738 65.5333 234.705 66.6333 235.305 67.7L254.105 103.1C254.638 104.167 255.171 104.933 255.705 105.4C256.305 105.867 257.005 106.167 257.805 106.3L260.205 106.7C261.005 106.767 261.405 107.167 261.405 107.9C261.405 108.633 260.938 109 260.005 109H242.205C241.271 109 240.805 108.633 240.805 107.9C240.805 107.233 241.238 106.833 242.105 106.7L243.805 106.5C246.405 106.167 246.938 104.533 245.405 101.6L231.005 74.2C230.738 73.6667 230.438 73.4 230.105 73.4C229.771 73.3333 229.438 73.5667 229.105 74.1L227.005 77.4C226.538 78.0667 226.205 78.7 226.005 79.3C225.871 79.9 225.805 80.6667 225.805 81.6V102.3C225.805 103.7 226.005 104.667 226.405 105.2C226.871 105.733 227.805 106.1 229.205 106.3L231.905 106.7C232.638 106.833 233.005 107.2 233.005 107.8C233.005 108.6 232.505 109 231.505 109H213.205ZM283.691 109.9C280.091 109.9 276.891 109.067 274.091 107.4C271.358 105.667 269.225 103.3 267.691 100.3C266.158 97.2333 265.391 93.7333 265.391 89.8V43.6C265.391 42.2 265.158 41.2667 264.691 40.8C264.291 40.3333 263.391 39.9667 261.991 39.7L259.691 39.3C258.825 39.1 258.391 38.7 258.391 38.1C258.391 37.3667 258.891 37 259.891 37H278.191C279.191 37 279.691 37.4 279.691 38.2C279.691 38.8 279.325 39.1667 278.591 39.3L275.891 39.7C274.558 39.9 273.658 40.2667 273.191 40.8C272.725 41.3333 272.491 42.3 272.491 43.7V89.9C272.491 94.9667 273.625 98.9 275.891 101.7C278.158 104.5 281.325 105.9 285.391 105.9C289.525 105.9 292.725 104.5 294.991 101.7C297.258 98.9 298.391 94.9667 298.391 89.9V45.7C298.391 42.1 297.258 40.1 294.991 39.7L292.291 39.3C291.558 39.1667 291.191 38.8 291.191 38.2C291.191 37.4 291.691 37 292.691 37H307.091C308.091 37 308.591 37.3667 308.591 38.1C308.591 38.7 308.158 39.1 307.291 39.3L304.991 39.7C302.725 40.1 301.591 42.0667 301.591 45.6V89.8C301.591 95.8667 299.958 100.733 296.691 104.4C293.425 108.067 289.091 109.9 283.691 109.9ZM313.205 109C312.205 109 311.705 108.633 311.705 107.9C311.705 107.3 312.138 106.9 313.005 106.7L315.305 106.3C316.705 106.033 317.605 105.667 318.005 105.2C318.471 104.733 318.705 103.8 318.705 102.4V43.6C318.705 42.2 318.471 41.2667 318.005 40.8C317.605 40.3333 316.705 39.9667 315.305 39.7L313.005 39.3C312.138 39.1 311.705 38.7 311.705 38.1C311.705 37.3667 312.205 37 313.205 37H331.505C332.505 37 333.005 37.4 333.005 38.2C333.005 38.8 332.638 39.1667 331.905 39.3L329.205 39.7C327.805 39.9 326.871 40.2667 326.405 40.8C326.005 41.3333 325.805 42.3 325.805 43.7V99.7C325.805 102.1 326.471 103.833 327.805 104.9C329.205 105.967 330.938 106.5 333.005 106.5C334.538 106.5 336.105 106.2 337.705 105.6C339.371 104.933 340.871 103.733 342.205 102C343.538 100.2 344.538 97.6 345.205 94.2L346.505 87.5C346.705 86.6333 347.205 86.2 348.005 86.2C348.938 86.2 349.338 86.7667 349.205 87.9L348.005 106.7C347.871 108.233 347.038 109 345.505 109H313.205ZM357.542 109C356.542 109 356.042 108.633 356.042 107.9C356.042 107.167 356.476 106.767 357.342 106.7L361.842 106C363.176 105.8 364.076 105.467 364.542 105C365.009 104.467 365.242 103.5 365.242 102.1V42.1C365.242 41.1667 365.042 40.5 364.642 40.1C364.242 39.7 363.409 39.5 362.142 39.5C359.676 39.5 357.242 40.5667 354.842 42.7C352.442 44.8333 350.876 48.2667 350.142 53L349.642 56.3C349.509 57.1667 349.042 57.6 348.242 57.6C347.242 57.6 346.809 57.0333 346.942 55.9L347.842 37.8C347.976 36.2667 348.576 35.5 349.642 35.5C350.109 35.5 350.542 35.6333 350.942 35.9C351.342 36.1 352.009 36.3333 352.942 36.6C353.942 36.8667 355.509 37 357.642 37H379.942C382.076 37 383.609 36.8667 384.542 36.6C385.542 36.3333 386.242 36.1 386.642 35.9C387.109 35.6333 387.542 35.5 387.942 35.5C389.009 35.5 389.609 36.2667 389.742 37.8L390.642 55.9C390.776 57.0333 390.342 57.6 389.342 57.6C388.542 57.6 388.076 57.1667 387.942 56.3L387.442 53C386.776 48.2667 385.242 44.8333 382.842 42.7C380.442 40.5667 377.976 39.5 375.442 39.5C374.176 39.5 373.342 39.7 372.942 40.1C372.542 40.5 372.342 41.1667 372.342 42.1V102.1C372.342 103.5 372.576 104.467 373.042 105C373.576 105.467 374.476 105.8 375.742 106L380.242 106.7C381.109 106.767 381.542 107.167 381.542 107.9C381.542 108.633 381.042 109 380.042 109H357.542ZM419.336 109.9C415.736 109.9 412.536 109.067 409.736 107.4C407.003 105.667 404.869 103.3 403.336 100.3C401.803 97.2333 401.036 93.7333 401.036 89.8V43.6C401.036 42.2 400.803 41.2667 400.336 40.8C399.936 40.3333 399.036 39.9667 397.636 39.7L395.336 39.3C394.469 39.1 394.036 38.7 394.036 38.1C394.036 37.3667 394.536 37 395.536 37H413.836C414.836 37 415.336 37.4 415.336 38.2C415.336 38.8 414.969 39.1667 414.236 39.3L411.536 39.7C410.203 39.9 409.303 40.2667 408.836 40.8C408.369 41.3333 408.136 42.3 408.136 43.7V89.9C408.136 94.9667 409.269 98.9 411.536 101.7C413.803 104.5 416.969 105.9 421.036 105.9C425.169 105.9 428.369 104.5 430.636 101.7C432.903 98.9 434.036 94.9667 434.036 89.9V45.7C434.036 42.1 432.903 40.1 430.636 39.7L427.936 39.3C427.203 39.1667 426.836 38.8 426.836 38.2C426.836 37.4 427.336 37 428.336 37H442.736C443.736 37 444.236 37.3667 444.236 38.1C444.236 38.7 443.803 39.1 442.936 39.3L440.636 39.7C438.369 40.1 437.236 42.0667 437.236 45.6V89.8C437.236 95.8667 435.603 100.733 432.336 104.4C429.069 108.067 424.736 109.9 419.336 109.9ZM490.449 109.9C484.649 109.9 480.949 106.1 479.349 98.5L477.049 87.4C476.316 83.8 475.483 81.0667 474.549 79.2C473.683 77.3333 472.449 76.0667 470.849 75.4C469.316 74.7333 467.183 74.4 464.449 74.4C463.516 74.4 462.783 74.6667 462.249 75.2C461.716 75.6667 461.449 76.2667 461.449 77V102C461.449 103.4 461.716 104.367 462.249 104.9C462.783 105.367 463.983 105.767 465.849 106.1L469.549 106.7C470.283 106.833 470.649 107.2 470.649 107.8C470.649 108.6 470.149 109 469.149 109H448.849C447.849 109 447.349 108.633 447.349 107.9C447.349 107.3 447.783 106.9 448.649 106.7L450.949 106.3C452.349 106.033 453.249 105.667 453.649 105.2C454.116 104.733 454.349 103.8 454.349 102.4V43.6C454.349 42.2 454.116 41.2667 453.649 40.8C453.249 40.3333 452.349 39.9667 450.949 39.7L448.649 39.3C447.783 39.1 447.349 38.7 447.349 38.1C447.349 37.3667 447.849 37 448.849 37H469.149C473.083 37 476.583 37.7667 479.649 39.3C482.716 40.8333 485.116 42.9667 486.849 45.7C488.583 48.3667 489.449 51.4667 489.449 55C489.449 59.2 488.183 63 485.649 66.4C483.116 69.7333 479.916 72.1 476.049 73.5C475.583 73.6333 475.316 73.8667 475.249 74.2C475.249 74.4667 475.483 74.7 475.949 74.9C478.083 75.9 479.749 77.3 480.949 79.1C482.216 80.9 483.183 83.3 483.849 86.3L486.049 96.5C486.783 99.9667 487.649 102.433 488.649 103.9C489.649 105.367 490.916 106.1 492.449 106.1C492.983 106.1 493.449 106.033 493.849 105.9C494.316 105.7 494.883 105.367 495.549 104.9C496.083 104.567 496.583 104.5 497.049 104.7C497.516 104.833 497.749 105.167 497.749 105.7C497.749 106.833 497.016 107.833 495.549 108.7C494.083 109.5 492.383 109.9 490.449 109.9ZM468.149 71.9C472.683 71.9 476.116 70.4 478.449 67.4C480.783 64.3333 481.949 60.2667 481.949 55.2C481.949 50.2667 480.583 46.4333 477.849 43.7C475.183 40.9 471.483 39.5 466.749 39.5C463.216 39.5 461.449 40.8333 461.449 43.5V66.4C461.449 70.0667 463.683 71.9 468.149 71.9ZM491.438 109C490.438 109 489.938 108.667 489.938 108C489.938 107.333 490.405 106.9 491.338 106.7L492.838 106.4C494.172 106.133 495.172 105.5 495.838 104.5C496.505 103.433 497.072 101.967 497.538 100.1L513.038 37.6C513.172 36.9333 513.372 36.5 513.638 36.3C513.972 36.1 514.272 36 514.538 36C514.872 36 515.172 36.1 515.438 36.3C515.772 36.5 516.005 36.9333 516.138 37.6L531.938 101C532.405 102.867 532.938 104.167 533.538 104.9C534.138 105.633 535.072 106.133 536.338 106.4L537.838 106.7C538.772 106.9 539.238 107.333 539.238 108C539.238 108.667 538.738 109 537.738 109H520.638C519.705 109 519.238 108.633 519.238 107.9C519.238 107.167 519.805 106.767 520.938 106.7L522.838 106.5C523.972 106.367 524.672 106 524.938 105.4C525.272 104.8 525.272 103.767 524.938 102.3L521.138 86.8C520.738 85.0667 519.638 84.2 517.838 84.2H507.338C505.605 84.2 504.505 85.0667 504.038 86.8L500.638 100.2C499.638 104 500.638 106.1 503.638 106.5L505.138 106.7C506.272 106.9 506.838 107.3 506.838 107.9C506.838 108.633 506.372 109 505.438 109H491.438ZM507.038 81.2H518.038C519.105 81.2 519.538 80.6333 519.338 79.5L512.938 52.7H512.438L505.738 79.5C505.538 80.6333 505.972 81.2 507.038 81.2Z" fill="white"/>
<g clip-path="url(#clip0_1396_1091)">
<path d="M634.666 124.901C629.392 124.543 624.509 123.332 619.598 121.165C616.905 119.977 615.107 118.971 612.676 117.293C610.458 115.761 609.36 114.862 607.461 113.022C603.263 108.955 600.2 104.294 598.274 99.0425C597.792 97.73 596.855 94.5259 596.855 94.1927C596.855 94.0327 596.809 94.0264 596.031 94.0801C594.268 94.202 592.709 93.7121 591.584 92.6826C590.155 91.3735 589.237 89.6543 588.513 86.9283C587.812 84.2904 587.831 81.182 588.562 78.5835C589.686 74.5925 592.106 71.946 595.584 70.904C597.27 70.3989 598.923 70.1588 599.654 70.3128L600.052 70.3965L600.699 69.2637C601.315 68.1871 602.41 66.4848 602.993 65.6987C603.351 65.2168 603.712 65.1479 604.438 65.4232C604.727 65.5327 605.006 65.6701 605.059 65.7284C605.128 65.8051 604.975 66.0813 604.505 66.7241C603.578 67.9922 602.911 69.0569 602.085 70.5884C601.214 72.2018 601.127 72.2679 600.007 72.175C599.62 72.1429 599.304 72.0832 599.304 72.0423C599.304 71.8083 596.845 72.2423 595.649 72.6875C593.252 73.579 591.474 75.6002 590.512 78.5253C589.076 82.8891 590.121 88.7682 592.8 91.3987C593.599 92.1837 594.409 92.4151 596.243 92.3827C597.35 92.3632 597.513 92.3802 597.95 92.5605L598.432 92.76L598.639 93.7241C599.442 97.4596 601.251 101.896 603.228 104.98C604.336 106.709 606.004 108.886 607.3 110.295C608.337 111.423 610.4 113.34 611.593 114.284C613.108 115.482 615.496 117.093 616.929 117.883C619.598 119.354 623.082 120.814 625.767 121.586C633.848 123.91 642.814 123.799 650.794 121.275C653.985 120.266 657.705 118.544 660.423 116.818C661.558 116.097 663.762 114.477 665.017 113.443C667.45 111.436 670.571 107.833 672.331 105.001C672.968 103.975 674.363 101.362 674.767 100.438C675.062 99.7628 675.095 99.6215 675.007 99.3915C674.879 99.0553 674.964 98.7407 675.255 98.4746C675.467 98.2798 675.548 98.2665 676.517 98.2665C677.19 98.2665 677.574 98.3008 677.618 98.3649C677.664 98.4342 677.994 98.4483 678.73 98.4125C680.575 98.3228 681.858 97.862 682.876 96.9232C684.139 95.7597 685.216 93.5653 685.864 90.8351C686.11 89.7984 686.208 86.9771 686.042 85.6751C685.614 82.3049 683.949 79.8068 681.53 78.9067C680.77 78.6242 678.591 78.2205 678.505 78.3466C678.464 78.4081 678.07 78.4322 677.37 78.4162L676.298 78.3917L676.231 78.133C676.085 77.5715 675.998 76.8836 676.065 76.8203C676.103 76.7835 675.912 76.1326 675.64 75.3738C674.256 71.5184 671.997 67.6264 669.316 64.4807L668.409 63.4172L668.623 63.2088C669.027 62.8157 670.071 62.695 670.407 63.0026C670.712 63.282 672.115 65.0371 672.783 65.9753C674.679 68.64 676.377 71.9154 677.521 75.1152L678.014 76.4948L678.33 76.5205C679.208 76.5922 680.936 76.9064 681.719 77.1366C682.893 77.4819 683.642 77.8997 684.642 78.7677C686.278 80.1875 687.286 82.0474 687.779 84.5568C688.021 85.7883 688.077 88.7102 687.884 90.0488C687.615 91.9143 687.003 93.8136 686.134 95.4771C685.468 96.752 684.96 97.4551 684.208 98.1398C682.692 99.52 680.964 100.102 678.345 100.114L676.914 100.12L676.422 101.198C674.853 104.637 673.412 106.954 671.056 109.821C669.674 111.503 668.822 112.397 667.158 113.909C665.492 115.424 664.572 116.161 663.021 117.224C659.449 119.674 656.275 121.253 651.926 122.745C646.813 124.499 640.448 125.295 634.666 124.901ZM627.98 108.838C625.823 108.511 623.88 107.736 622.262 106.558C620.672 105.4 619.478 103.773 618.751 101.773C618.337 100.634 618.109 99.4909 618.158 98.7963C618.192 98.3044 618.229 98.2166 618.498 97.9964C618.885 97.6805 619.34 97.6653 619.709 97.9561C619.955 98.1498 619.976 98.2205 620.037 99.0555C620.217 101.508 621.606 103.975 623.577 105.341C624.825 106.205 626.666 106.919 628.262 107.156C629.407 107.326 632.074 107.273 634.289 107.036C636.281 106.822 636.62 106.837 636.933 107.155C637.189 107.413 637.168 107.944 636.892 108.213C636.621 108.477 636.604 108.481 634.709 108.705C632.743 108.937 629.108 109.009 627.98 108.838ZM608.229 88.7549C607.254 88.2925 606.097 86.921 605.668 85.7162L605.425 85.0358V78.8776C605.425 72.8753 605.43 72.704 605.623 72.1066C606.02 70.8729 606.563 70.5206 608.371 70.3232C609.49 70.2011 628.312 70.2164 629.345 70.3403C630.313 70.4563 631.026 70.6868 631.328 70.9818C631.452 71.1024 631.682 71.4219 631.838 71.6918C631.995 71.9617 632.2 72.1957 632.293 72.2117C632.386 72.2278 632.683 72.0873 632.952 71.8995C633.497 71.5197 633.78 71.4237 634.798 71.2742C635.897 71.1129 637.995 71.3167 638.784 71.6614C638.953 71.7356 639.316 71.9852 639.59 72.2161C640.07 72.6219 640.091 72.6298 640.191 72.4529C640.389 72.1039 641.135 71.361 641.551 71.0995C641.78 70.955 642.19 70.7668 642.461 70.6813C643.666 70.3017 644.125 70.2866 654.443 70.2866C665.557 70.2866 664.721 70.2324 665.637 71.0124C666.521 71.7647 666.464 71.2143 666.453 78.8779L666.444 85.6072L666.113 86.2201C665.519 87.3208 664.966 87.8563 663.625 88.6302L663.107 88.929L652.902 88.9903L642.698 89.0517L642.213 88.8334C641.604 88.5588 640.507 87.6562 640.274 87.2372C639.881 86.5333 639.859 86.1983 639.826 80.5753L639.794 75.1711L639.208 74.9978C638.885 74.9024 638.367 74.775 638.056 74.7145C637.343 74.5757 635.421 74.5786 634.623 74.7198C633.853 74.8561 632.565 75.2222 632.288 75.3836L632.076 75.5071L632.074 80.1828C632.072 84.9205 632.006 86.0854 631.683 87.0728C631.542 87.5054 631.02 87.9959 630.066 88.5925L629.419 88.9973L619.116 89.0145L608.813 89.0316L608.229 88.7549ZM594.736 67.1511C594.238 66.944 592.69 65.5392 592.062 64.7251C590.605 62.8345 589.792 60.5242 589.792 58.2754C589.792 56.1873 590.066 54.4178 590.702 52.395C591.11 51.099 591.147 51.0256 591.92 49.9748C593.486 47.8469 597.171 44.2191 599.501 42.5105C606.556 37.3387 619.045 32.7522 629.895 31.3491L631.434 31.1501L631.365 30.6711C631.328 30.4077 631.304 29.1688 631.313 27.9182C631.331 25.4886 631.389 25.1362 631.792 25.0191C632.074 24.9373 632.54 25.1315 632.594 25.3529C632.618 25.4536 632.649 26.7453 632.663 28.2234C632.677 29.7015 632.713 30.933 632.742 30.96C632.772 30.987 633.429 30.9536 634.202 30.8858C640.288 30.3522 644.433 30.5407 652.1 31.6995C655.561 32.2225 656.605 32.411 660.187 33.1607C661.741 33.4859 663.542 33.8559 664.19 33.9828C667.736 34.6783 670.628 36.0701 672.98 38.2127C675.384 40.4032 677.39 43.7061 678.308 46.9851C679.118 49.8751 679.276 52.6533 678.744 54.6211C678.507 55.4996 677.976 56.6891 677.694 56.9741C677.402 57.2699 676.451 57.1648 672.09 56.355C663.743 54.8047 660.286 54.3816 651.57 53.8432C649.352 53.7062 639.703 53.7034 637.444 53.8391C636.538 53.8936 634.949 54.0543 633.913 54.1963C632.877 54.3384 631.054 54.5743 629.863 54.7207C624.443 55.3867 623.665 55.5729 616.349 57.9528C611.509 59.5274 610.311 59.9969 606.838 61.6815C603.236 63.428 601.528 64.427 599.209 66.1417C598.582 66.6061 597.538 67.0243 596.595 67.1895C595.672 67.3512 595.193 67.3413 594.736 67.1511Z" fill="white"/>
</g>
<defs>
<clipPath id="clip0_1396_1091">
<rect width="100" height="100" fill="white" transform="translate(588 25)"/>
</clipPath>
</defs>
</svg>
