<svg width="6937" height="1334" viewBox="0 0 6937 1334" fill="none" xmlns="http://www.w3.org/2000/svg">
<rect width="6936.86" height="1334" fill="#A23145"/>
<path d="M341 1016C287 1016 241.333 1000.67 204 970C166.667 939.333 138.333 896.333 119 841C99.6667 785 90 719 90 643C90 569.667 101.333 505.667 124 451C146.667 395.667 177.667 353 217 323C257 292.333 302.667 277 354 277C380 277 403.667 279.667 425 285C446.333 289.667 465 296 481 304C489.667 308.667 494 315.667 494 325L497 477C497 488.333 493 494 485 494C477.667 494 473 489.667 471 481L463 451C448.333 395.667 431.667 357.667 413 337C394.333 316.333 368.667 306 336 306C287.333 306 247 335 215 393C183.667 450.333 168 533.667 168 643C168 755.667 184 841.667 216 901C248.667 959.667 290.333 989 341 989C368.333 989 389 983 403 971C417 959 424 936.667 424 904V685C424 671 421.667 661.333 417 656C413 650.667 404 647.333 390 646L351 642C342.333 641.333 338 637.333 338 630C338 622.667 343 619 353 619H536C546 619 551 623 551 631C551 637 547.333 640.667 540 642L525 644C510.333 646 501.667 650 499 656C496.333 662 495 672 495 686V957C495 964.333 493 970.333 489 975C485 979 478 983.667 468 989C452 997 433.667 1003.33 413 1008C392.333 1013.33 368.333 1016 341 1016ZM832.813 1016C796.813 1016 764.813 1007.67 736.813 991C709.479 973.667 688.146 950 672.813 920C657.479 889.333 649.813 854.333 649.813 815V353C649.813 339 647.479 329.667 642.813 325C638.813 320.333 629.813 316.667 615.813 314L592.813 310C584.146 308 579.813 304 579.813 298C579.813 290.667 584.813 287 594.813 287H777.813C787.813 287 792.813 291 792.813 299C792.813 305 789.146 308.667 781.813 310L754.813 314C741.479 316 732.479 319.667 727.813 325C723.146 330.333 720.813 340 720.813 354V816C720.813 866.667 732.146 906 754.813 934C777.479 962 809.146 976 849.813 976C891.146 976 923.146 962 945.813 934C968.479 906 979.813 866.667 979.813 816V374C979.813 338 968.479 318 945.813 314L918.813 310C911.479 308.667 907.813 305 907.813 299C907.813 291 912.813 287 922.813 287H1066.81C1076.81 287 1081.81 290.667 1081.81 298C1081.81 304 1077.48 308 1068.81 310L1045.81 314C1023.15 318 1011.81 337.667 1011.81 373V815C1011.81 875.667 995.479 924.333 962.813 961C930.146 997.667 886.813 1016 832.813 1016ZM1543.95 1016C1485.95 1016 1448.95 978 1432.95 902L1409.95 791C1402.61 755 1394.28 727.667 1384.95 709C1376.28 690.333 1363.95 677.667 1347.95 671C1332.61 664.333 1311.28 661 1283.95 661C1274.61 661 1267.28 663.667 1261.95 669C1256.61 673.667 1253.95 679.667 1253.95 687V937C1253.95 951 1256.61 960.667 1261.95 966C1267.28 970.667 1279.28 974.667 1297.95 978L1334.95 984C1342.28 985.333 1345.95 989 1345.95 995C1345.95 1003 1340.95 1007 1330.95 1007H1127.95C1117.95 1007 1112.95 1003.33 1112.95 996C1112.95 990 1117.28 986 1125.95 984L1148.95 980C1162.95 977.333 1171.95 973.667 1175.95 969C1180.61 964.333 1182.95 955 1182.95 941V353C1182.95 339 1180.61 329.667 1175.95 325C1171.95 320.333 1162.95 316.667 1148.95 314L1125.95 310C1117.28 308 1112.95 304 1112.95 298C1112.95 290.667 1117.95 287 1127.95 287H1330.95C1370.28 287 1405.28 294.667 1435.95 310C1466.61 325.333 1490.61 346.667 1507.95 374C1525.28 400.667 1533.95 431.667 1533.95 467C1533.95 509 1521.28 547 1495.95 581C1470.61 614.333 1438.61 638 1399.95 652C1395.28 653.333 1392.61 655.667 1391.95 659C1391.95 661.667 1394.28 664 1398.95 666C1420.28 676 1436.95 690 1448.95 708C1461.61 726 1471.28 750 1477.95 780L1499.95 882C1507.28 916.667 1515.95 941.333 1525.95 956C1535.95 970.667 1548.61 978 1563.95 978C1569.28 978 1573.95 977.333 1577.95 976C1582.61 974 1588.28 970.667 1594.95 966C1600.28 962.667 1605.28 962 1609.95 964C1614.61 965.333 1616.95 968.667 1616.95 974C1616.95 985.333 1609.61 995.333 1594.95 1004C1580.28 1012 1563.28 1016 1543.95 1016ZM1320.95 636C1366.28 636 1400.61 621 1423.95 591C1447.28 560.333 1458.95 519.667 1458.95 469C1458.95 419.667 1445.28 381.333 1417.95 354C1391.28 326 1354.28 312 1306.95 312C1271.61 312 1253.95 325.333 1253.95 352V581C1253.95 617.667 1276.28 636 1320.95 636ZM1628.92 1007C1618.92 1007 1613.92 1003.33 1613.92 996C1613.92 990 1618.26 986 1626.92 984L1649.92 980C1663.92 977.333 1672.92 973.667 1676.92 969C1681.59 964.333 1683.92 955 1683.92 941V353C1683.92 339 1681.59 329.667 1676.92 325C1672.92 320.333 1663.92 316.667 1649.92 314L1626.92 310C1618.26 308 1613.92 304 1613.92 298C1613.92 290.667 1618.92 287 1628.92 287H1964.92C1980.26 287 1988.59 294.667 1989.92 310L1997.92 476C1999.26 487.333 1994.92 493 1984.92 493C1976.92 493 1972.26 488.667 1970.92 480L1964.92 443C1957.59 397.667 1942.59 364.667 1919.92 344C1897.26 322.667 1865.92 312 1825.92 312C1799.26 312 1780.59 316 1769.92 324C1759.92 331.333 1754.92 344.667 1754.92 364V605C1754.92 614.333 1759.59 619 1768.92 619H1818.92C1848.26 619 1866.26 603.333 1872.92 572L1882.92 522C1885.59 512 1891.26 507.667 1899.92 509C1907.26 510.333 1910.92 516 1910.92 526V751C1910.92 761 1907.26 766.667 1899.92 768C1891.26 769.333 1885.59 765 1882.92 755L1872.92 706C1868.26 682.667 1861.59 667.333 1852.92 660C1844.92 652.667 1833.26 649 1817.92 649H1768.92C1759.59 649 1754.92 653.667 1754.92 663V914C1754.92 938 1760.92 955.333 1772.92 966C1785.59 976.667 1808.26 982 1840.92 982C1874.26 982 1902.59 973.667 1925.92 957C1949.92 939.667 1966.59 907.667 1975.92 861L1987.92 802C1989.92 793.333 1994.92 789 2002.92 789C2012.26 789 2016.26 794.667 2014.92 806L2004.92 984C2003.59 999.333 1995.26 1007 1979.92 1007H1628.92ZM2082.05 1007C2072.05 1007 2067.05 1003.33 2067.05 996C2067.05 990 2071.38 986 2080.05 984L2103.05 980C2117.05 977.333 2126.05 973.667 2130.05 969C2134.71 964.333 2137.05 955 2137.05 941V353C2137.05 339 2134.71 329.667 2130.05 325C2126.05 320.333 2117.05 316.667 2103.05 314L2080.05 310C2071.38 308 2067.05 304 2067.05 298C2067.05 290.667 2072.05 287 2082.05 287H2265.05C2275.05 287 2280.05 291 2280.05 299C2280.05 305 2276.38 308.667 2269.05 310L2242.05 314C2228.05 316 2218.71 319.667 2214.05 325C2210.05 330.333 2208.05 340 2208.05 354V624C2208.05 630.667 2210.05 634.667 2214.05 636C2218.05 637.333 2221.71 635 2225.05 629L2389.05 372C2411.05 338 2409.05 318.667 2383.05 314L2360.05 310C2351.38 308 2347.05 303.667 2347.05 297C2347.05 290.333 2351.71 287 2361.05 287H2531.05C2540.38 287 2545.05 290.667 2545.05 298C2545.05 305.333 2540.71 309.333 2532.05 310L2513.05 312C2492.38 314 2475.38 320 2462.05 330C2448.71 340 2433.71 358 2417.05 384L2304.05 561C2297.38 572.333 2297.05 583.333 2303.05 594L2491.05 948C2496.38 958.667 2501.71 966.333 2507.05 971C2513.05 975.667 2520.05 978.667 2528.05 980L2552.05 984C2560.05 984.667 2564.05 988.667 2564.05 996C2564.05 1003.33 2559.38 1007 2550.05 1007H2372.05C2362.71 1007 2358.05 1003.33 2358.05 996C2358.05 989.333 2362.38 985.333 2371.05 984L2388.05 982C2414.05 978.667 2419.38 962.333 2404.05 933L2260.05 659C2257.38 653.667 2254.38 651 2251.05 651C2247.71 650.333 2244.38 652.667 2241.05 658L2220.05 691C2215.38 697.667 2212.05 704 2210.05 710C2208.71 716 2208.05 723.667 2208.05 733V940C2208.05 954 2210.05 963.667 2214.05 969C2218.71 974.333 2228.05 978 2242.05 980L2269.05 984C2276.38 985.333 2280.05 989 2280.05 995C2280.05 1003 2275.05 1007 2265.05 1007H2082.05ZM2786.91 1016C2750.91 1016 2718.91 1007.67 2690.91 991C2663.58 973.667 2642.25 950 2626.91 920C2611.58 889.333 2603.91 854.333 2603.91 815V353C2603.91 339 2601.58 329.667 2596.91 325C2592.91 320.333 2583.91 316.667 2569.91 314L2546.91 310C2538.25 308 2533.91 304 2533.91 298C2533.91 290.667 2538.91 287 2548.91 287H2731.91C2741.91 287 2746.91 291 2746.91 299C2746.91 305 2743.25 308.667 2735.91 310L2708.91 314C2695.58 316 2686.58 319.667 2681.91 325C2677.25 330.333 2674.91 340 2674.91 354V816C2674.91 866.667 2686.25 906 2708.91 934C2731.58 962 2763.25 976 2803.91 976C2845.25 976 2877.25 962 2899.91 934C2922.58 906 2933.91 866.667 2933.91 816V374C2933.91 338 2922.58 318 2899.91 314L2872.91 310C2865.58 308.667 2861.91 305 2861.91 299C2861.91 291 2866.91 287 2876.91 287H3020.91C3030.91 287 3035.91 290.667 3035.91 298C3035.91 304 3031.58 308 3022.91 310L2999.91 314C2977.25 318 2965.91 337.667 2965.91 373V815C2965.91 875.667 2949.58 924.333 2916.91 961C2884.25 997.667 2840.91 1016 2786.91 1016ZM3082.05 1007C3072.05 1007 3067.05 1003.33 3067.05 996C3067.05 990 3071.38 986 3080.05 984L3103.05 980C3117.05 977.333 3126.05 973.667 3130.05 969C3134.71 964.333 3137.05 955 3137.05 941V353C3137.05 339 3134.71 329.667 3130.05 325C3126.05 320.333 3117.05 316.667 3103.05 314L3080.05 310C3071.38 308 3067.05 304 3067.05 298C3067.05 290.667 3072.05 287 3082.05 287H3265.05C3275.05 287 3280.05 291 3280.05 299C3280.05 305 3276.38 308.667 3269.05 310L3242.05 314C3228.05 316 3218.71 319.667 3214.05 325C3210.05 330.333 3208.05 340 3208.05 354V914C3208.05 938 3214.71 955.333 3228.05 966C3242.05 976.667 3259.38 982 3280.05 982C3295.38 982 3311.05 979 3327.05 973C3343.71 966.333 3358.71 954.333 3372.05 937C3385.38 919 3395.38 893 3402.05 859L3415.05 792C3417.05 783.333 3422.05 779 3430.05 779C3439.38 779 3443.38 784.667 3442.05 796L3430.05 984C3428.71 999.333 3420.38 1007 3405.05 1007H3082.05ZM3525.42 1007C3515.42 1007 3510.42 1003.33 3510.42 996C3510.42 988.667 3514.76 984.667 3523.42 984L3568.42 977C3581.76 975 3590.76 971.667 3595.42 967C3600.09 961.667 3602.42 952 3602.42 938V338C3602.42 328.667 3600.42 322 3596.42 318C3592.42 314 3584.09 312 3571.42 312C3546.76 312 3522.42 322.667 3498.42 344C3474.42 365.333 3458.76 399.667 3451.42 447L3446.42 480C3445.09 488.667 3440.42 493 3432.42 493C3422.42 493 3418.09 487.333 3419.42 476L3428.42 295C3429.76 279.667 3435.76 272 3446.42 272C3451.09 272 3455.42 273.333 3459.42 276C3463.42 278 3470.09 280.333 3479.42 283C3489.42 285.667 3505.09 287 3526.42 287H3749.42C3770.76 287 3786.09 285.667 3795.42 283C3805.42 280.333 3812.42 278 3816.42 276C3821.09 273.333 3825.42 272 3829.42 272C3840.09 272 3846.09 279.667 3847.42 295L3856.42 476C3857.76 487.333 3853.42 493 3843.42 493C3835.42 493 3830.76 488.667 3829.42 480L3824.42 447C3817.76 399.667 3802.42 365.333 3778.42 344C3754.42 322.667 3729.76 312 3704.42 312C3691.76 312 3683.42 314 3679.42 318C3675.42 322 3673.42 328.667 3673.42 338V938C3673.42 952 3675.76 961.667 3680.42 967C3685.76 971.667 3694.76 975 3707.42 977L3752.42 984C3761.09 984.667 3765.42 988.667 3765.42 996C3765.42 1003.33 3760.42 1007 3750.42 1007H3525.42ZM4143.36 1016C4107.36 1016 4075.36 1007.67 4047.36 991C4020.03 973.667 3998.69 950 3983.36 920C3968.03 889.333 3960.36 854.333 3960.36 815V353C3960.36 339 3958.03 329.667 3953.36 325C3949.36 320.333 3940.36 316.667 3926.36 314L3903.36 310C3894.69 308 3890.36 304 3890.36 298C3890.36 290.667 3895.36 287 3905.36 287H4088.36C4098.36 287 4103.36 291 4103.36 299C4103.36 305 4099.69 308.667 4092.36 310L4065.36 314C4052.03 316 4043.03 319.667 4038.36 325C4033.69 330.333 4031.36 340 4031.36 354V816C4031.36 866.667 4042.69 906 4065.36 934C4088.03 962 4119.69 976 4160.36 976C4201.69 976 4233.69 962 4256.36 934C4279.03 906 4290.36 866.667 4290.36 816V374C4290.36 338 4279.03 318 4256.36 314L4229.36 310C4222.03 308.667 4218.36 305 4218.36 299C4218.36 291 4223.36 287 4233.36 287H4377.36C4387.36 287 4392.36 290.667 4392.36 298C4392.36 304 4388.03 308 4379.36 310L4356.36 314C4333.69 318 4322.36 337.667 4322.36 373V815C4322.36 875.667 4306.03 924.333 4273.36 961C4240.69 997.667 4197.36 1016 4143.36 1016ZM4854.49 1016C4796.49 1016 4759.49 978 4743.49 902L4720.49 791C4713.16 755 4704.83 727.667 4695.49 709C4686.83 690.333 4674.49 677.667 4658.49 671C4643.16 664.333 4621.83 661 4594.49 661C4585.16 661 4577.83 663.667 4572.49 669C4567.16 673.667 4564.49 679.667 4564.49 687V937C4564.49 951 4567.16 960.667 4572.49 966C4577.83 970.667 4589.83 974.667 4608.49 978L4645.49 984C4652.83 985.333 4656.49 989 4656.49 995C4656.49 1003 4651.49 1007 4641.49 1007H4438.49C4428.49 1007 4423.49 1003.33 4423.49 996C4423.49 990 4427.83 986 4436.49 984L4459.49 980C4473.49 977.333 4482.49 973.667 4486.49 969C4491.16 964.333 4493.49 955 4493.49 941V353C4493.49 339 4491.16 329.667 4486.49 325C4482.49 320.333 4473.49 316.667 4459.49 314L4436.49 310C4427.83 308 4423.49 304 4423.49 298C4423.49 290.667 4428.49 287 4438.49 287H4641.49C4680.83 287 4715.83 294.667 4746.49 310C4777.16 325.333 4801.16 346.667 4818.49 374C4835.83 400.667 4844.49 431.667 4844.49 467C4844.49 509 4831.83 547 4806.49 581C4781.16 614.333 4749.16 638 4710.49 652C4705.83 653.333 4703.16 655.667 4702.49 659C4702.49 661.667 4704.83 664 4709.49 666C4730.83 676 4747.49 690 4759.49 708C4772.16 726 4781.83 750 4788.49 780L4810.49 882C4817.83 916.667 4826.49 941.333 4836.49 956C4846.49 970.667 4859.16 978 4874.49 978C4879.83 978 4884.49 977.333 4888.49 976C4893.16 974 4898.83 970.667 4905.49 966C4910.83 962.667 4915.83 962 4920.49 964C4925.16 965.333 4927.49 968.667 4927.49 974C4927.49 985.333 4920.16 995.333 4905.49 1004C4890.83 1012 4873.83 1016 4854.49 1016ZM4631.49 636C4676.83 636 4711.16 621 4734.49 591C4757.83 560.333 4769.49 519.667 4769.49 469C4769.49 419.667 4755.83 381.333 4728.49 354C4701.83 326 4664.83 312 4617.49 312C4582.16 312 4564.49 325.333 4564.49 352V581C4564.49 617.667 4586.83 636 4631.49 636ZM4864.38 1007C4854.38 1007 4849.38 1003.67 4849.38 997C4849.38 990.333 4854.05 986 4863.38 984L4878.38 981C4891.72 978.333 4901.72 972 4908.38 962C4915.05 951.333 4920.72 936.667 4925.38 918L5080.38 293C5081.72 286.333 5083.72 282 5086.38 280C5089.72 278 5092.72 277 5095.38 277C5098.72 277 5101.72 278 5104.38 280C5107.72 282 5110.05 286.333 5111.38 293L5269.38 927C5274.05 945.667 5279.38 958.667 5285.38 966C5291.38 973.333 5300.72 978.333 5313.38 981L5328.38 984C5337.72 986 5342.38 990.333 5342.38 997C5342.38 1003.67 5337.38 1007 5327.38 1007H5156.38C5147.05 1007 5142.38 1003.33 5142.38 996C5142.38 988.667 5148.05 984.667 5159.38 984L5178.38 982C5189.72 980.667 5196.72 977 5199.38 971C5202.72 965 5202.72 954.667 5199.38 940L5161.38 785C5157.38 767.667 5146.38 759 5128.38 759H5023.38C5006.05 759 4995.05 767.667 4990.38 785L4956.38 919C4946.38 957 4956.38 978 4986.38 982L5001.38 984C5012.72 986 5018.38 990 5018.38 996C5018.38 1003.33 5013.72 1007 5004.38 1007H4864.38ZM5020.38 729H5130.38C5141.05 729 5145.38 723.333 5143.38 712L5079.38 444H5074.38L5007.38 712C5005.38 723.333 5009.72 729 5020.38 729Z" fill="white"/>
<g clip-path="url(#clip0_1394_1083)">
<path d="M6320.53 1245.74C6264.53 1241.58 6212.68 1227.54 6160.52 1202.4C6131.93 1188.63 6112.84 1176.96 6087.03 1157.5C6063.47 1139.73 6051.81 1129.3 6031.65 1107.97C5987.08 1060.8 5954.55 1006.75 5934.09 945.836C5928.98 930.613 5919.03 893.454 5919.03 889.59C5919.03 887.734 5918.54 887.66 5910.28 888.284C5891.55 889.697 5875 884.016 5863.06 872.076C5847.88 856.894 5838.14 836.955 5830.45 805.339C5823 774.746 5823.2 738.697 5830.97 708.56C5842.91 662.274 5868.6 631.581 5905.53 619.496C5923.43 613.638 5940.98 610.854 5948.75 612.64L5952.97 613.611L5959.85 600.473C5966.38 587.987 5978.01 568.245 5984.21 559.127C5988.01 553.539 5991.84 552.739 5999.55 555.932C6002.61 557.203 6005.58 558.795 6006.14 559.472C6006.88 560.361 6005.25 563.564 6000.26 571.019C5990.42 585.726 5983.34 598.074 5974.56 615.836C5965.31 634.548 5964.4 635.315 5952.5 634.237C5948.39 633.864 5945.03 633.172 5945.03 632.698C5945.03 629.985 5918.92 635.018 5906.22 640.181C5880.77 650.52 5861.89 673.961 5851.67 707.886C5836.43 758.495 5847.52 826.679 5875.97 857.185C5884.46 866.29 5893.05 868.974 5912.53 868.598C5924.28 868.371 5926.02 868.569 5930.65 870.66L5935.78 872.973L5937.98 884.154C5946.5 927.478 5965.7 978.924 5986.7 1014.7C5998.47 1034.74 6016.18 1060 6029.94 1076.34C6040.96 1089.42 6062.86 1111.65 6075.53 1122.6C6091.61 1136.49 6116.97 1155.18 6132.18 1164.34C6160.53 1181.4 6197.52 1198.33 6226.03 1207.28C6311.84 1234.24 6407.05 1232.95 6491.79 1203.68C6525.67 1191.97 6565.17 1172 6594.03 1151.99C6606.08 1143.63 6629.49 1124.84 6642.82 1112.84C6668.65 1089.57 6701.8 1047.78 6720.48 1014.94C6727.24 1003.04 6742.06 972.741 6746.35 962.024C6749.48 954.19 6749.83 952.551 6748.9 949.884C6747.54 945.984 6748.44 942.335 6751.52 939.249C6753.78 936.99 6754.64 936.836 6764.92 936.836C6772.08 936.836 6776.16 937.234 6776.62 937.977C6777.11 938.78 6780.61 938.944 6788.42 938.529C6808.01 937.488 6821.64 932.144 6832.46 921.257C6845.87 907.763 6857.3 882.314 6864.18 850.649C6866.8 838.626 6867.83 805.906 6866.07 790.806C6861.53 751.719 6843.84 722.747 6818.15 712.308C6810.09 709.032 6786.95 704.351 6786.04 705.813C6785.6 706.526 6781.42 706.806 6773.98 706.62L6762.6 706.336L6761.89 703.336C6760.34 696.823 6759.42 688.846 6760.12 688.111C6760.53 687.684 6758.5 680.136 6755.61 671.336C6740.92 626.622 6716.93 581.484 6688.46 545.002L6678.84 532.668L6681.11 530.25C6685.39 525.691 6696.48 524.291 6700.05 527.859C6703.29 531.1 6718.18 551.454 6725.28 562.336C6745.41 593.239 6763.45 631.226 6775.59 668.336L6780.82 684.336L6784.18 684.634C6793.5 685.465 6811.86 689.11 6820.17 691.779C6832.63 695.784 6840.58 700.63 6851.2 710.696C6868.57 727.163 6879.28 748.733 6884.51 777.836C6887.08 792.119 6887.68 826.006 6885.63 841.531C6882.78 863.165 6876.28 885.193 6867.05 904.486C6859.98 919.272 6854.58 927.426 6846.59 935.367C6830.5 951.374 6812.15 958.119 6784.34 958.259L6769.15 958.335L6763.92 970.835C6747.26 1010.72 6731.95 1037.59 6706.94 1070.84C6692.27 1090.34 6683.22 1100.71 6665.55 1118.26C6647.86 1135.82 6638.09 1144.37 6621.62 1156.7C6583.69 1185.11 6549.99 1203.42 6503.8 1220.73C6449.52 1241.08 6381.93 1250.3 6320.53 1245.74ZM6249.53 1059.44C6226.63 1055.65 6206 1046.66 6188.82 1033C6171.93 1019.56 6159.25 1000.7 6151.54 977.507C6147.14 964.297 6144.72 951.036 6145.23 942.981C6145.6 937.275 6145.99 936.257 6148.85 933.704C6152.95 930.039 6157.79 929.864 6161.71 933.236C6164.32 935.482 6164.54 936.302 6165.19 945.986C6167.1 974.426 6181.85 1003.04 6202.78 1018.88C6216.03 1028.91 6235.58 1037.18 6252.53 1039.93C6264.69 1041.91 6293.01 1041.29 6316.53 1038.54C6337.68 1036.06 6341.27 1036.24 6344.61 1039.92C6347.32 1042.92 6347.09 1049.07 6344.16 1052.19C6341.29 1055.25 6341.1 1055.3 6320.98 1057.9C6300.11 1060.59 6261.51 1061.43 6249.53 1059.44ZM6039.81 826.524C6029.45 821.161 6017.17 805.255 6012.61 791.282L6010.03 783.391V711.971C6010.03 642.358 6010.08 640.371 6012.13 633.443C6016.35 619.135 6022.12 615.05 6041.31 612.761C6053.19 611.344 6253.06 611.521 6264.03 612.958C6274.31 614.304 6281.87 616.978 6285.09 620.399C6286.4 621.798 6288.84 625.503 6290.5 628.633C6292.17 631.763 6294.34 634.476 6295.33 634.663C6296.32 634.849 6299.47 633.22 6302.33 631.042C6308.11 626.637 6311.12 625.524 6321.93 623.79C6333.6 621.919 6355.88 624.283 6364.25 628.28C6366.05 629.14 6369.9 632.035 6372.81 634.714C6377.92 639.42 6378.13 639.512 6379.2 637.459C6381.3 633.413 6389.23 624.796 6393.63 621.763C6396.07 620.087 6400.42 617.905 6403.3 616.914C6416.1 612.511 6420.96 612.336 6530.53 612.336C6648.55 612.336 6639.67 611.707 6649.4 620.753C6658.78 629.478 6658.18 623.096 6658.07 711.975L6657.97 790.018L6654.45 797.126C6648.14 809.892 6642.27 816.103 6628.03 825.078L6622.53 828.543L6514.17 829.255L6405.81 829.966L6400.67 827.435C6394.2 824.25 6382.55 813.782 6380.07 808.922C6375.91 800.758 6375.67 796.873 6375.32 731.66L6374.98 668.984L6368.76 666.974C6365.33 665.868 6359.83 664.39 6356.53 663.689C6348.95 662.079 6328.54 662.113 6320.07 663.75C6311.89 665.331 6298.22 669.577 6295.28 671.449L6293.03 672.881L6293.01 727.108C6292.99 782.055 6292.29 795.565 6288.86 807.016C6287.35 812.033 6281.81 817.722 6271.68 824.641L6264.81 829.335L6155.41 829.534L6046.01 829.733L6039.81 826.524ZM5896.52 575.971C5891.23 573.57 5874.8 557.277 5868.14 547.836C5852.66 525.909 5844.03 499.116 5844.03 473.034C5844.03 448.817 5846.94 428.296 5853.69 404.836C5858.02 389.805 5858.41 388.955 5866.63 376.767C5883.26 352.089 5922.38 310.015 5947.13 290.199C6022.04 230.219 6154.66 177.026 6269.87 160.754L6286.21 158.447L6285.48 152.891C6285.08 149.836 6284.83 135.468 6284.93 120.964C6285.12 92.7864 6285.73 88.6987 6290.01 87.3411C6293 86.392 6297.96 88.6453 6298.52 91.2122C6298.78 92.3801 6299.11 107.361 6299.26 124.504C6299.41 141.646 6299.79 155.928 6300.1 156.241C6300.41 156.554 6307.39 156.167 6315.6 155.381C6380.22 149.193 6424.24 151.378 6505.66 164.817C6542.41 170.883 6553.49 173.07 6591.53 181.765C6608.03 185.536 6627.15 189.826 6634.03 191.299C6671.69 199.365 6702.4 215.506 6727.37 240.356C6752.9 265.76 6774.2 304.065 6783.95 342.095C6792.54 375.611 6794.23 407.832 6788.58 430.653C6786.06 440.842 6780.42 454.637 6777.43 457.943C6774.33 461.374 6764.22 460.155 6717.92 450.762C6629.28 432.783 6592.57 427.875 6500.03 421.632C6476.48 420.043 6374.01 420.01 6350.03 421.584C6340.4 422.216 6323.53 424.08 6312.53 425.727C6301.53 427.375 6282.18 430.111 6269.53 431.809C6211.98 439.533 6203.71 441.692 6126.03 469.293C6074.63 487.555 6061.91 492.999 6025.03 512.537C5986.79 532.793 5968.65 544.379 5944.03 564.265C5937.36 569.65 5926.28 574.502 5916.27 576.417C5906.47 578.293 5901.38 578.178 5896.52 575.971Z" fill="white"/>
</g>
<defs>
<clipPath id="clip0_1394_1083">
<rect width="1061.86" height="1159.76" fill="white" transform="translate(5825 87.1196)"/>
</clipPath>
</defs>
</svg>
