<?xml version="1.0" encoding="UTF-8" standalone="no"?>
<!-- Created with Inkscape (http://www.inkscape.org/) -->

<svg
   version="1.1"
   id="svg1"
   width="1061.8624"
   height="1159.7609"
   viewBox="0 0 1061.8624 1159.7608"
   xmlns="http://www.w3.org/2000/svg"
   xmlns:svg="http://www.w3.org/2000/svg">
  <defs
     id="defs1" />
  <g
     id="g1"
     transform="translate(-9940.0432,-1587.1832)">
    <path
       style="fill:#ffffff;fill-opacity:1"
       d="m 10435.571,2745.8002 c -56.003,-4.16 -107.851,-18.2009 -160.007,-43.3318 -28.59,-13.7754 -47.683,-25.4425 -73.493,-44.9075 -23.555,-17.7646 -35.216,-28.194 -55.38,-49.532 -44.572,-47.1665 -77.096,-101.2202 -97.554,-162.1297 -5.112,-15.2222 -15.066,-52.3817 -15.066,-56.2456 0,-1.8561 -0.492,-1.9296 -8.75,-1.3064 -18.726,1.4134 -35.2767,-4.2679 -47.2166,-16.2079 -15.1823,-15.1823 -24.927,-35.1207 -32.6165,-66.7364 -7.4408,-30.5931 -7.2451,-66.6424 0.5254,-96.7794 11.9343,-46.2857 37.6282,-76.9787 74.5577,-89.0636 17.901,-5.858 35.455,-8.6426 43.223,-6.8565 l 4.222,0.9709 6.875,-13.1376 c 6.534,-12.4865 18.166,-32.2286 24.36,-41.3458 3.797,-5.5886 7.636,-6.3882 15.34,-3.195 3.065,1.2703 6.032,2.8631 6.593,3.5397 0.738,0.889 -0.894,4.0921 -5.883,11.5469 -9.842,14.7075 -16.922,27.0555 -25.698,44.8167 -9.246,18.7123 -10.165,19.4791 -22.061,18.4011 -4.109,-0.3724 -7.471,-1.0649 -7.471,-1.5391 0,-2.7131 -26.105,2.3203 -38.812,7.4833 -25.444,10.339 -44.3294,33.78 -54.5465,67.7048 -15.2419,50.6093 -4.1456,118.793 24.2973,149.2997 8.489,9.1049 17.0852,11.7882 36.5612,11.4127 11.753,-0.2267 13.491,-0.029 18.124,2.0621 l 5.123,2.3128 2.2,11.1813 c 8.526,43.3236 27.729,94.7699 48.727,130.5463 11.764,20.0444 29.48,45.3 43.234,61.635 11.02,13.0891 32.922,35.3116 45.592,46.2611 16.082,13.8977 41.444,32.5823 56.656,41.7389 28.344,17.0616 65.34,33.9924 93.844,42.947 85.811,26.9571 181.025,25.6659 265.76,-3.6041 33.883,-11.7042 73.384,-31.6748 102.24,-51.6897 12.056,-8.3623 35.464,-27.1444 48.788,-39.1462 25.832,-23.2694 58.979,-65.0581 77.66,-97.905 6.767,-11.8977 21.579,-42.1963 25.869,-52.9135 3.136,-7.8345 3.48,-9.4732 2.55,-12.1404 -1.359,-3.8993 -0.457,-7.5486 2.628,-10.6342 2.259,-2.2589 3.12,-2.4139 13.401,-2.4139 7.153,0 11.232,0.3982 11.691,1.1414 0.497,0.8033 3.995,0.9667 11.809,0.5516 19.59,-1.0405 33.214,-6.3845 44.033,-17.2719 13.41,-13.4942 24.844,-38.9431 31.725,-70.6078 2.613,-12.023 3.647,-44.7433 1.891,-59.8431 -4.544,-39.0868 -22.23,-68.0589 -47.919,-78.4973 -8.064,-3.2764 -31.208,-7.9579 -32.112,-6.4953 -0.441,0.7128 -4.621,0.9925 -12.059,0.8067 l -11.384,-0.2843 -0.712,-3 c -1.547,-6.5121 -2.471,-14.4898 -1.763,-15.2249 0.41,-0.4263 -1.62,-7.9751 -4.512,-16.7751 -14.692,-44.7138 -38.684,-89.8514 -67.151,-126.334 l -9.624,-12.3339 2.271,-2.4176 c 4.283,-4.5587 15.376,-5.959 18.943,-2.3914 3.241,3.241 18.133,23.5957 25.224,34.4769 20.139,30.9037 38.17,68.8903 50.313,106 l 5.236,16 3.352,0.2988 c 9.324,0.831 27.681,4.4754 35.991,7.1451 12.463,4.0042 20.414,8.8502 31.034,18.9165 17.373,16.4667 28.075,38.0372 33.312,67.1396 2.571,14.2834 3.165,48.1701 1.117,63.695 -2.853,21.6346 -9.355,43.6625 -18.581,62.9552 -7.071,14.786 -12.473,22.94 -20.457,30.8809 -16.094,16.0067 -34.439,22.7525 -62.255,22.8925 l -15.191,0.076 -5.222,12.5 c -16.663,39.8883 -31.971,66.7527 -56.98,100 -14.675,19.5099 -23.727,29.8787 -41.395,47.4213 -17.69,17.5648 -27.456,26.1121 -43.927,38.4463 -37.936,28.4084 -71.634,46.7214 -117.819,64.0293 -54.285,20.3433 -121.877,29.5648 -183.275,25.0041 z m -71,-186.2951 c -22.896,-3.7937 -43.533,-12.7832 -60.712,-26.4463 -16.888,-13.4316 -29.564,-32.2987 -37.281,-55.4881 -4.395,-13.2102 -6.816,-26.4707 -6.303,-34.5264 0.363,-5.7055 0.76,-6.7237 3.618,-9.277 4.101,-3.6644 8.936,-3.8403 12.857,-0.4676 2.612,2.2461 2.836,3.0658 3.484,12.75 1.906,28.4395 16.659,57.0492 37.59,72.8945 13.245,10.027 32.795,18.2998 49.747,21.0515 12.159,1.9738 40.479,1.3558 64,-1.3965 21.148,-2.4746 24.745,-2.2971 28.077,1.3855 2.712,2.9961 2.489,9.1511 -0.444,12.2735 -2.874,3.0588 -3.057,3.1037 -23.182,5.7026 -20.868,2.6947 -59.472,3.5291 -71.451,1.5443 z M 10154.85,2326.588 c -10.361,-5.3633 -22.638,-21.2695 -27.202,-35.2421 l -2.577,-7.8912 v -71.42 c 0,-69.613 0.05,-71.5997 2.099,-78.5277 4.224,-14.3084 9.989,-18.3938 29.185,-20.6829 11.88,-1.4166 211.744,-1.2392 222.716,0.1977 10.28,1.3463 17.845,4.0193 21.06,7.4408 1.314,1.3987 3.75,5.104 5.414,8.234 1.665,3.13 3.836,5.8433 4.826,6.0297 0.99,0.1863 4.14,-1.4429 7,-3.6205 5.785,-4.405 8.795,-5.5182 19.607,-7.2522 11.665,-1.871 33.94,0.4928 42.317,4.4905 1.802,0.8599 5.653,3.7547 8.558,6.433 5.106,4.7063 5.32,4.7984 6.387,2.7459 2.103,-4.0468 10.028,-12.663 14.436,-15.696 2.436,-1.676 6.786,-3.8582 9.667,-4.8495 12.799,-4.4032 17.664,-4.5783 127.228,-4.5783 118.022,0 109.143,-0.6288 118.872,8.4174 9.384,8.7248 8.778,2.3426 8.665,91.2218 l -0.1,78.0437 -3.513,7.1073 c -6.309,12.7659 -12.181,18.977 -26.424,27.9518 l -5.5,3.4654 -108.357,0.7114 -108.357,0.7113 -5.143,-2.531 c -6.472,-3.1849 -18.12,-13.6532 -20.599,-18.5128 -4.165,-8.1636 -4.404,-12.0485 -4.753,-77.262 l -0.335,-62.6758 -6.228,-2.0101 c -3.426,-1.1056 -8.928,-2.5838 -12.228,-3.2848 -7.579,-1.6101 -27.985,-1.5758 -36.456,0.061 -8.181,1.581 -21.854,5.8265 -24.794,7.6985 l -2.25,1.4326 -0.02,54.2269 c -0.02,54.9463 -0.722,68.4564 -4.153,79.9073 -1.503,5.0176 -7.046,10.706 -17.172,17.625 l -6.872,4.6947 -109.403,0.1991 -109.403,0.199 z m -143.286,-250.5532 c -5.287,-2.4016 -21.7237,-18.6938 -28.3861,-28.1356 -15.4719,-21.9267 -24.1068,-48.7199 -24.1068,-74.8012 0,-24.2171 2.9082,-44.7381 9.6649,-68.1988 4.3288,-15.0303 4.7207,-15.8809 12.9335,-28.0686 16.6296,-24.6781 55.7555,-66.7522 80.5025,-86.5676 74.907,-59.9807 207.53,-113.1733 322.74,-129.445 l 16.341,-2.3079 -0.73,-5.5555 c -0.401,-3.0555 -0.65,-17.4227 -0.553,-31.9272 0.188,-28.1774 0.806,-32.2651 5.084,-33.6227 2.99,-0.9491 7.945,1.3041 8.512,3.871 0.258,1.1679 0.589,16.149 0.737,33.2914 0.147,17.1424 0.525,31.4242 0.839,31.7373 0.314,0.3131 7.289,-0.074 15.5,-0.8602 64.624,-6.188 108.639,-4.0026 190.058,9.4367 36.751,6.0662 47.83,8.2527 85.871,16.9474 16.5,3.7713 35.625,8.0617 42.5,9.5343 37.658,8.066 68.369,24.2069 93.34,49.0568 25.529,25.4044 46.832,63.7094 56.581,101.7389 8.593,33.5166 10.277,65.7375 4.63,88.5584 -2.521,10.1887 -8.157,23.9842 -11.148,27.2895 -3.105,3.4311 -13.209,2.2121 -59.512,-7.1801 -88.636,-17.9791 -125.347,-22.8871 -217.891,-29.1303 -23.551,-1.5889 -126.019,-1.622 -150,-0.048 -9.625,0.6315 -26.5,2.4959 -37.5,4.1431 -11,1.6473 -30.35,4.384 -43,6.0817 -57.552,7.7238 -65.818,9.8831 -143.5,37.4837 -51.399,18.2625 -64.115,23.7068 -101,43.2447 -38.239,20.2552 -56.382,31.8416 -81,51.7278 -6.666,5.3852 -17.747,10.2363 -27.757,12.1514 -9.805,1.8759 -14.894,1.7613 -19.75,-0.4449 z"
       id="path1" />
  </g>
</svg>
