<svg width="100" height="100" viewBox="0 0 100 100" fill="none" xmlns="http://www.w3.org/2000/svg">
<g clip-path="url(#clip0_1396_1152)">
<path d="M46.666 99.9014C41.392 99.5427 36.5093 98.332 31.5975 96.1651C28.9051 94.9773 27.107 93.9713 24.6764 92.293C22.4581 90.7612 21.3599 89.8619 19.461 88.0221C15.2635 83.9552 12.2005 79.2944 10.2739 74.0425C9.79246 72.73 8.85511 69.5259 8.85511 69.1927C8.85511 69.0327 8.80877 69.0264 8.03108 69.0801C6.26758 69.202 4.70891 68.7121 3.58448 67.6826C2.1547 66.3735 1.23703 64.6543 0.512877 61.9283C-0.187855 59.2904 -0.169426 56.182 0.562355 53.5835C1.68626 49.5925 4.10595 46.946 7.58376 45.904C9.26957 45.3989 10.9227 45.1588 11.6542 45.3128L12.0518 45.3965L12.6992 44.2637C13.3146 43.1871 14.41 41.4848 14.9933 40.6987C15.3509 40.2168 15.7124 40.1479 16.438 40.4232C16.7266 40.5327 17.006 40.6701 17.0588 40.7284C17.1283 40.8051 16.9747 41.0813 16.5048 41.7241C15.578 42.9922 14.9112 44.0569 14.0847 45.5884C13.214 47.2018 13.1275 47.2679 12.0072 47.175C11.6202 47.1429 11.3036 47.0832 11.3036 47.0423C11.3036 46.8083 8.84517 47.2423 7.6485 47.6875C5.25233 48.579 3.47387 50.6002 2.51169 53.5253C1.07629 57.8891 2.12124 63.7682 4.79982 66.3987C5.59927 67.1837 6.40884 67.4151 8.24297 67.3827C9.3498 67.3632 9.51348 67.3802 9.94979 67.5605L10.4322 67.76L10.6394 68.7241C11.4423 72.4596 13.2508 76.8956 15.2282 79.9804C16.3361 81.7087 18.0044 83.8863 19.2997 85.2948C20.3375 86.4234 22.4002 88.3396 23.5934 89.2837C25.1079 90.482 27.4962 92.0931 28.9288 92.8826C31.5981 94.3537 35.0822 95.8136 37.7666 96.5857C45.8477 98.9101 54.8144 98.7987 62.7943 96.2749C65.9852 95.2657 69.7052 93.5438 72.4227 91.818C73.558 91.097 75.7625 89.4775 77.0172 88.4426C79.4499 86.4362 82.5715 82.833 84.3307 80.0008C84.968 78.9749 86.3629 76.3624 86.7669 75.4383C87.0623 74.7628 87.0947 74.6215 87.0071 74.3915C86.8792 74.0553 86.9641 73.7407 87.2546 73.4746C87.4674 73.2798 87.5484 73.2665 88.5166 73.2665C89.1902 73.2665 89.5744 73.3008 89.6176 73.3649C89.6644 73.4342 89.9938 73.4483 90.7297 73.4125C92.5746 73.3228 93.8576 72.862 94.8765 71.9232C96.1394 70.7597 97.2161 68.5653 97.8641 65.8351C98.1102 64.7984 98.2076 61.9771 98.0423 60.6751C97.6143 57.3049 95.9488 54.8068 93.5295 53.9067C92.7701 53.6242 90.5905 53.2205 90.5054 53.3466C90.4639 53.4081 90.0702 53.4322 89.3698 53.4162L88.2976 53.3917L88.2306 53.133C88.0849 52.5715 87.9979 51.8836 88.0646 51.8203C88.1032 51.7835 87.912 51.1326 87.6397 50.3738C86.2561 46.5184 83.9966 42.6264 81.3158 39.4807L80.4094 38.4172L80.6234 38.2088C81.0267 37.8157 82.0713 37.695 82.4072 38.0026C82.7125 38.282 84.115 40.0371 84.7827 40.9753C86.6793 43.64 88.3773 46.9154 89.5209 50.1152L90.014 51.4948L90.3296 51.5205C91.2077 51.5922 92.9365 51.9064 93.7191 52.1366C94.8928 52.4819 95.6416 52.8997 96.6417 53.7677C98.2778 55.1875 99.2856 57.0474 99.7788 59.5568C100.021 60.7883 100.077 63.7102 99.884 65.0488C99.6153 66.9143 99.003 68.8136 98.1341 70.4771C97.4682 71.752 96.9595 72.4551 96.2076 73.1398C94.692 74.52 92.9644 75.1017 90.3448 75.1137L88.9143 75.1203L88.4224 76.1981C86.8532 79.6374 85.4116 81.9538 83.0564 84.8205C81.6744 86.5028 80.8219 87.3968 79.158 88.9094C77.4921 90.424 76.5724 91.1609 75.0213 92.2245C71.4487 94.674 68.2752 96.253 63.9257 97.7454C58.8135 99.4995 52.4481 100.295 46.666 99.9014ZM39.9797 83.8381C37.8235 83.511 35.88 82.7359 34.2622 81.5578C32.6718 80.3997 31.478 78.7729 30.7512 76.7734C30.3373 75.6343 30.1094 74.4909 30.1577 73.7963C30.1919 73.3044 30.2292 73.2166 30.4983 72.9964C30.8845 72.6805 31.3399 72.6653 31.7092 72.9561C31.9552 73.1498 31.9763 73.2205 32.0373 74.0555C32.2168 76.5077 33.6061 78.9745 35.5773 80.3408C36.8246 81.2054 38.6657 81.9187 40.2622 82.1559C41.4072 82.3261 44.0743 82.2728 46.2893 82.0355C48.2809 81.8222 48.6197 81.8375 48.9335 82.155C49.1889 82.4133 49.1678 82.9441 48.8916 83.2133C48.621 83.477 48.6038 83.4809 46.7085 83.705C44.7433 83.9373 41.1078 84.0093 39.9797 83.8381ZM20.2293 63.7549C19.2536 63.2925 18.0975 61.921 17.6677 60.7162L17.425 60.0358V53.8776C17.425 47.8753 17.4296 47.704 17.6226 47.1066C18.0204 45.8729 18.5633 45.5206 20.3711 45.3232C21.4899 45.2011 40.3119 45.2164 41.3452 45.3403C42.3133 45.4563 43.0257 45.6868 43.3285 45.9818C43.4522 46.1024 43.6816 46.4219 43.8383 46.6918C43.9951 46.9617 44.1996 47.1957 44.2928 47.2117C44.3861 47.2278 44.6827 47.0873 44.952 46.8995C45.4968 46.5197 45.7803 46.4237 46.7985 46.2742C47.897 46.1129 49.9948 46.3167 50.7837 46.6614C50.9534 46.7356 51.316 46.9852 51.5896 47.2161C52.0704 47.6219 52.0906 47.6298 52.1911 47.4529C52.3892 47.1039 53.1355 46.361 53.5506 46.0995C53.78 45.955 54.1896 45.7668 54.461 45.6813C55.6663 45.3017 56.1245 45.2866 66.4426 45.2866C77.5572 45.2866 76.7211 45.2324 77.6373 46.0124C78.521 46.7647 78.4639 46.2143 78.4533 53.8779L78.4438 60.6072L78.113 61.2201C77.5189 62.3208 76.9659 62.8563 75.6246 63.6302L75.1066 63.929L64.9022 63.9903L54.6978 64.0517L54.2134 63.8334C53.6039 63.5588 52.507 62.6562 52.2735 62.2372C51.8813 61.5333 51.8588 61.1983 51.8259 55.5753L51.7944 50.1711L51.2078 49.9978C50.8852 49.9024 50.3671 49.775 50.0563 49.7145C49.3426 49.5757 47.4208 49.5786 46.6231 49.7198C45.8526 49.8561 44.565 50.2222 44.2881 50.3836L44.0762 50.5071L44.0743 55.1828C44.0724 59.9205 44.0064 61.0854 43.6833 62.0728C43.5417 62.5054 43.0196 62.9959 42.066 63.5925L41.4189 63.9973L31.116 64.0145L20.813 64.0316L20.2293 63.7549ZM6.73554 42.1511C6.23765 41.944 4.68967 40.5392 4.06225 39.7251C2.6052 37.8345 1.79204 35.5242 1.79204 33.2754C1.79204 31.1873 2.06594 29.4178 2.70224 27.395C3.1099 26.099 3.14682 26.0256 3.92025 24.9748C5.48633 22.8469 9.17093 19.2191 11.5015 17.5105C18.5558 12.3387 31.0454 7.75216 41.8952 6.34914L43.4341 6.15014L43.3654 5.67112C43.3277 5.40766 43.3041 4.16885 43.3133 2.9182C43.331 0.488613 43.3892 0.136154 43.7921 0.0190951C44.0736 -0.0627407 44.5403 0.131549 44.5937 0.352879C44.618 0.453581 44.6491 1.74532 44.6631 3.22342C44.6769 4.70152 44.7125 5.93296 44.7421 5.95996C44.7716 5.98695 45.4285 5.95357 46.2018 5.88578C52.2877 5.35222 56.4328 5.54066 64.1004 6.69946C67.5614 7.22251 68.6047 7.41104 72.1872 8.16074C73.7411 8.48592 75.5422 8.85586 76.1896 8.98283C79.736 9.67832 82.6282 11.0701 84.9798 13.2127C87.384 15.4032 89.3902 18.7061 90.3083 21.9851C91.1175 24.8751 91.2761 27.6533 90.7443 29.6211C90.5069 30.4996 89.9761 31.6891 89.6944 31.9741C89.402 32.2699 88.4505 32.1648 84.09 31.355C75.7427 29.8047 72.2855 29.3816 63.5703 28.8432C61.3524 28.7062 51.7026 28.7034 49.4442 28.8391C48.5377 28.8936 46.9486 29.0543 45.9126 29.1963C44.8767 29.3384 43.0544 29.5743 41.8631 29.7207C36.4432 30.3867 35.6648 30.5729 28.3492 32.9528C23.5087 34.5274 22.3112 34.9969 18.8376 36.6815C15.2364 38.428 13.5278 39.427 11.2095 41.1417C10.5817 41.6061 9.53817 42.0243 8.59548 42.1895C7.67211 42.3512 7.19285 42.3413 6.73554 42.1511Z" fill="white"/>
</g>
<defs>
<clipPath id="clip0_1396_1152">
<rect width="100" height="100" fill="white"/>
</clipPath>
</defs>
</svg>
